<svg width="236" height="172" viewBox="0 0 236 172" fill="none" xmlns="http://www.w3.org/2000/svg">
<path d="M234.098 88.6388C233.208 87.0747 232.016 85.7032 230.591 84.6045C229.166 83.5057 227.537 82.7015 225.798 82.2388C217.911 80.222 209.74 79.5459 201.628 80.2388C206.298 59.6088 203.248 43.3288 200.178 33.8388C199.107 30.4863 196.825 27.653 193.779 25.8911C190.732 24.1292 187.138 23.5651 183.698 24.3088C173.021 26.7037 162.912 31.1567 153.938 37.4188C147.693 23.8327 138.25 11.961 126.418 2.81879C123.99 0.989436 121.033 0 117.993 0C114.953 0 111.996 0.989436 109.568 2.81879C97.7422 11.9651 88.3039 23.8359 82.0581 37.4188C73.0818 31.1544 62.9696 26.7012 52.2881 24.3088C48.8481 23.566 45.2547 24.1319 42.2094 25.8958C39.1641 27.6598 36.8854 30.4952 35.8181 33.8488C32.7481 43.3388 29.6981 59.6188 34.3681 80.2488C26.2563 79.5559 18.0857 80.232 10.1981 82.2488C8.4592 82.7115 6.82977 83.5157 5.40478 84.6145C3.97979 85.7133 2.78774 87.0847 1.89811 88.6488C0.96316 90.2563 0.357824 92.0339 0.117451 93.8779C-0.122923 95.7219 0.00648409 97.5954 0.498115 99.3888C3.80811 111.669 13.9981 135.009 44.9181 153.519C75.8381 172.029 103.288 172.009 117.998 172.009C132.708 172.009 160.118 172.009 191.058 153.519C221.998 135.029 232.168 111.669 235.478 99.3788C235.973 97.5866 236.105 95.714 235.868 93.87C235.632 92.026 235.03 90.2477 234.098 88.6388ZM158.478 48.9088C166.711 42.7004 176.165 38.3041 186.218 36.0088C186.752 35.8998 187.307 35.9929 187.777 36.27C188.246 36.5471 188.596 36.9886 188.758 37.5088C192.698 49.7288 196.568 75.0088 178.168 107.009C170.782 119.631 161.315 130.913 150.168 140.379C157.848 127.009 163.998 108.939 163.998 85.1788C164.092 72.8727 162.228 60.6299 158.478 48.9088ZM47.2381 37.5388C47.3945 37.013 47.7417 36.5646 48.2116 36.2816C48.6815 35.9985 49.2402 35.9012 49.7781 36.0088C59.8311 38.3041 69.2848 42.7004 77.5181 48.9088C73.7679 60.6299 71.9047 72.8727 71.9981 85.1788C71.9981 108.939 78.1481 127.029 85.8081 140.349C74.6586 130.885 65.1915 119.602 57.8081 106.979C39.4281 75.0088 43.2981 49.7288 47.2381 37.5388ZM51.0781 143.209C23.7781 126.899 14.9281 106.789 12.0781 96.2088C12.0034 95.9401 11.9835 95.659 12.0195 95.3824C12.0556 95.1059 12.1469 94.8394 12.2881 94.5988C12.5052 94.2127 12.8637 93.9259 13.2881 93.7988C21.37 91.7905 29.7729 91.4267 37.9981 92.7288C40.5353 99.7544 43.691 106.541 47.4281 113.009C57.6878 130.714 71.6783 145.974 88.4281 157.729C75.2233 155.115 62.5808 150.201 51.0781 143.209ZM117.998 158.869C109.318 152.669 83.9981 130.669 83.9981 85.1788C83.9981 41.8188 106.938 19.8388 116.798 12.3988C117.144 12.1391 117.565 11.9988 117.998 11.9988C118.431 11.9988 118.852 12.1391 119.198 12.3988C129.058 19.8388 151.998 41.8188 151.998 85.1788C151.998 130.949 126.808 152.679 117.998 158.869ZM223.898 96.2488C221.048 106.789 212.198 126.899 184.898 143.249C173.383 150.226 160.73 155.124 147.518 157.719C164.268 145.964 178.258 130.704 188.518 112.999C192.272 106.536 195.444 99.7527 197.998 92.7288C206.232 91.437 214.643 91.8145 222.728 93.8388C223.152 93.9659 223.511 94.2527 223.728 94.6388C223.866 94.8808 223.954 95.148 223.986 95.4245C224.019 95.7011 223.996 95.9814 223.918 96.2488H223.898Z" fill="#EE2C71"/>
</svg>
